<svg width="14" height="14" viewBox="0 0 14 14" fill="none" xmlns="http://www.w3.org/2000/svg">
<path d="M13.6592 7.43892L7.05189 0.840918C6.81772 0.606648 6.5036 0.408046 6.10934 0.244854C5.71495 0.0816287 5.35458 0 5.02804 0H1.18382C0.863418 0 0.586198 0.117135 0.35209 0.351113C0.117982 0.585221 0.000976562 0.862442 0.000976562 1.18284V5.02706C0.000976562 5.35357 0.0825082 5.71385 0.245798 6.10823C0.409088 6.50262 0.607722 6.81357 0.841895 7.04159L7.44906 13.6581C7.67702 13.886 7.95405 14 8.28079 14C8.60089 14 8.88145 13.886 9.12167 13.6581L13.659 9.11154C13.887 8.88348 14.0008 8.60649 14.0008 8.27994C14.0008 7.95957 13.887 7.67925 13.6592 7.43892ZM3.79435 3.7934C3.56319 4.02444 3.28451 4.14002 2.95796 4.14002C2.63154 4.14002 2.35274 4.02444 2.1217 3.7934C1.89067 3.56234 1.77519 3.28366 1.77519 2.95715C1.77519 2.6306 1.89067 2.35183 2.1217 2.12089C2.35277 1.88982 2.63154 1.77424 2.95796 1.77424C3.28451 1.77424 3.56328 1.88982 3.79435 2.12089C4.02528 2.35183 4.14087 2.63063 4.14087 2.95715C4.14087 3.28366 4.02541 3.56234 3.79435 3.7934Z" fill="#A4A4A4"/>
</svg>
