<svg width="42" height="42" viewBox="0 0 42 42" fill="none" xmlns="http://www.w3.org/2000/svg">
<g clip-path="url(#clip0)">
<path d="M21.0958 0C21.0845 0 21.062 0 21.0283 0C9.64017 0 0.378906 9.26126 0.378906 20.6493C0.378906 25.2969 1.96559 29.8093 4.86888 33.4441L1.86431 40.4322C1.61674 41.0061 1.88682 41.67 2.44947 41.9064C2.65202 41.9964 2.87708 42.0189 3.09089 41.9851L14.1076 40.0496C16.3132 40.8486 18.6314 41.2537 20.972 41.2424C32.3601 41.2424 41.6214 31.9812 41.6214 20.5931C41.6439 9.23875 32.4501 0.0112531 21.0958 0ZM14.0289 16.497H20.1055C20.7244 16.497 21.2308 17.0034 21.2308 17.6223C21.2308 18.2412 20.7244 18.7476 20.1055 18.7476H14.0289C13.4099 18.7476 12.9036 18.2412 12.9036 17.6223C12.9036 17.0034 13.4099 16.497 14.0289 16.497ZM27.9827 24.3741H14.0289C13.4099 24.3741 12.9036 23.8677 12.9036 23.2488C12.9036 22.6299 13.4099 22.1235 14.0289 22.1235H27.9827C28.6016 22.1235 29.108 22.6299 29.108 23.2488C29.108 23.8677 28.6016 24.3741 27.9827 24.3741Z" fill="#1AC0C6"/>
</g>
<defs>
<clipPath id="clip0">
<rect width="42" height="42" fill="white"/>
</clipPath>
</defs>
</svg>
