<svg width="24" height="24" viewBox="0 0 24 24" fill="none" xmlns="http://www.w3.org/2000/svg">
<g clip-path="url(#clip0)">
<path d="M12.5497 12.0027L23.8867 23.3397C24.0378 23.4908 24.0378 23.7358 23.8867 23.8869C23.7356 24.038 23.4906 24.038 23.3394 23.8869L12.0024 12.5499L0.665397 23.8869C0.511653 24.0354 0.266668 24.0311 0.118149 23.8774C-0.0266943 23.7274 -0.0266943 23.4897 0.118149 23.3397L11.4552 12.0027L0.118149 0.66563C-0.0355958 0.517111 -0.0398531 0.272127 0.108667 0.118382C0.257186 -0.0353622 0.502171 -0.0396194 0.655915 0.1089C0.659156 0.111996 0.662301 0.115189 0.665397 0.118382L12.0024 11.4554L23.3394 0.118382C23.4932 -0.030138 23.7382 -0.0258808 23.8867 0.127863C24.0316 0.277834 24.0316 0.515659 23.8867 0.66563L12.5497 12.0027Z" fill="#A4A4A4"/>
</g>
<defs>
<clipPath id="clip0">
<rect width="24" height="24" fill="white" transform="matrix(1 0 0 -1 0 24)"/>
</clipPath>
</defs>
</svg>
