<svg width="24" height="22" viewBox="0 0 24 22" fill="none" xmlns="http://www.w3.org/2000/svg">
<path d="M11.0722 21.3162C11.3289 21.541 11.6583 21.6648 12 21.6648C12.3415 21.6648 12.6711 21.541 12.9276 21.3165C13.8993 20.4667 14.8355 19.6688 15.6617 18.9649L15.662 18.9646C18.0794 16.9044 20.1671 15.1253 21.6198 13.3723C23.2437 11.4129 24 9.55493 24 7.52521C24 5.55316 23.3239 3.73383 22.0962 2.4021C20.8538 1.05463 19.149 0.3125 17.2956 0.3125C15.9102 0.3125 14.6415 0.750488 13.5247 1.6142C12.9609 2.05017 12.4502 2.58374 12 3.20612C11.5499 2.58374 11.039 2.05017 10.4754 1.6142C9.35869 0.750488 8.08995 0.3125 6.70458 0.3125C4.851 0.3125 3.1463 1.05463 1.90393 2.4021C0.676207 3.73383 0 5.55316 0 7.52521C0 9.55493 0.756407 11.4129 2.38037 13.3725C3.83312 15.1254 5.92107 16.9048 8.33897 18.9653L8.34318 18.9689C9.16789 19.6717 10.1026 20.4684 11.0722 21.3162Z" fill="#F14545"/>
</svg>
