<?xml version="1.0" encoding="UTF-8" standalone="no"?>
<svg
   xmlns:dc="http://purl.org/dc/elements/1.1/"
   xmlns:cc="http://creativecommons.org/ns#"
   xmlns:rdf="http://www.w3.org/1999/02/22-rdf-syntax-ns#"
   xmlns:svg="http://www.w3.org/2000/svg"
   xmlns="http://www.w3.org/2000/svg"
   xmlns:sodipodi="http://sodipodi.sourceforge.net/DTD/sodipodi-0.dtd"
   xmlns:inkscape="http://www.inkscape.org/namespaces/inkscape"
   width="56.004017"
   height="78.017815"
   viewBox="0 0 14.817729 20.642214"
   version="1.1"
   id="svg1438"
   inkscape:version="1.0.1 (1.0.1+r73)"
   sodipodi:docname="lamp.svg">
  <defs
     id="defs1432" />
  <sodipodi:namedview
     id="base"
     pagecolor="#ffffff"
     bordercolor="#666666"
     borderopacity="1.0"
     inkscape:pageopacity="0.0"
     inkscape:pageshadow="2"
     inkscape:zoom="2.8"
     inkscape:cx="41.08858"
     inkscape:cy="51.56484"
     inkscape:document-units="mm"
     inkscape:current-layer="layer1"
     inkscape:document-rotation="0"
     showgrid="false"
     units="px"
     fit-margin-top="5"
     lock-margins="true"
     fit-margin-left="5"
     fit-margin-right="5"
     fit-margin-bottom="5"
     inkscape:window-width="1438"
     inkscape:window-height="968"
     inkscape:window-x="1970"
     inkscape:window-y="27"
     inkscape:window-maximized="0" />
  <metadata
     id="metadata1435">
    <rdf:RDF>
      <cc:Work
         rdf:about="">
        <dc:format>image/svg+xml</dc:format>
        <dc:type
           rdf:resource="http://purl.org/dc/dcmitype/StillImage" />
        <dc:title></dc:title>
      </cc:Work>
    </rdf:RDF>
  </metadata>
  <g
     inkscape:label="Layer 1"
     inkscape:groupmode="layer"
     id="layer1"
     transform="translate(-87.841137,-144.64913)">
    <path
       d="m 97.300679,160.59652 h -4.1012 c -0.425768,0 -0.772187,0.3328 -0.772187,0.74182 0,0.40902 0.346393,0.74181 0.772187,0.74181 h 4.101227 c 0.425741,0 0.772107,-0.33279 0.772107,-0.74181 0,-0.40902 -0.346313,-0.74182 -0.772134,-0.74182 z"
       fill="#F2F2F2"
       id="path1393"
       style="fill:#e6e6e6;fill-opacity:1;stroke-width:0.264583" />
    <path
       d="m 93.777858,162.81233 c -0.425979,0 -0.772583,0.25937 -0.772583,0.57806 0,0.31872 0.346604,0.57804 0.772583,0.57804 h 2.944336 c 0.42598,0 0.772557,-0.25932 0.772557,-0.57804 0,-0.31869 -0.346577,-0.57806 -0.772557,-0.57806 z"
       fill="#F2F2F2"
       id="path1395"
       style="fill:#e6e6e6;fill-opacity:1;stroke-width:0.264583" />
    <path
       d="m 98.907838,159.59693 c 0.08297,-0.13825 0.104087,-0.34896 0.12274,-0.53499 0.0048,-0.0484 0.0094,-0.0936 0.01479,-0.13282 0.207778,-1.50604 0.714508,-2.39747 1.204462,-3.25954 0.55862,-0.98276 1.08612,-1.91105 1.08612,-3.61158 -6e-5,-3.35582 -2.73024,-6.08595 -6.086003,-6.08595 -3.35579,0 -6.085893,2.73013 -6.085893,6.08592 0,1.70021 0.527341,2.6284 1.085718,3.61106 0.523584,0.9216 1.064974,1.87441 1.241451,3.57209 0.0043,0.38481 0.318929,0.69701 0.703924,0.69701 h 6.109705 c 0.245587,1.1e-4 0.476621,-0.13067 0.602986,-0.3412 z"
       fill="#F2F2F2"
       id="path1397"
       style="fill:#e6e6e6;fill-opacity:1;stroke-width:0.264583" />
  </g>
</svg>
