<svg width="24" height="24" viewBox="0 0 24 24" fill="none" xmlns="http://www.w3.org/2000/svg">
<path d="M23.25 11.25H0.749981C0.335964 11.25 0 11.5861 0 12C0 12.414 0.336026 12.75 0.749981 12.75H23.25C23.664 12.75 23.9999 12.414 23.9999 12C23.9999 11.5861 23.664 11.25 23.25 11.25Z" fill="#F14545"/>
<path d="M15.75 16.5H0.74998C0.335963 16.5 0 16.8361 0 17.25C0 17.664 0.336026 18 0.74998 18H15.75C16.164 18 16.4999 17.664 16.4999 17.25C16.5 16.836 16.164 16.5 15.75 16.5Z" fill="#F14545"/>
<path d="M23.2309 5.98489H8.23094C7.81692 5.98489 7.48096 6.32092 7.48096 6.73487C7.48096 7.14889 7.81698 7.48486 8.23094 7.48486H23.2309C23.6449 7.48486 23.9809 7.14883 23.9809 6.73487C23.981 6.32086 23.6449 5.98489 23.2309 5.98489Z" fill="#F14545"/>
</svg>
