<svg width="24" height="24" viewBox="0 0 24 24" fill="none" xmlns="http://www.w3.org/2000/svg">
<path d="M14.5157 20.0001C14.5157 22.2092 12.7247 24 10.5156 24C8.3064 24 6.51562 22.2092 6.51562 20.0001C6.51562 17.7909 8.3064 15.9999 10.5156 15.9999C12.7247 15.9999 14.5157 17.7909 14.5157 20.0001Z" fill="#FFA000"/>
<path d="M17.5236 11.9211C14.1335 11.437 11.5157 8.52191 11.5157 5.00006C11.5157 3.99994 11.7296 3.05109 12.1086 2.18994C11.5966 2.07001 11.0647 2.00006 10.5156 2.00006C6.6557 2.00006 3.51562 5.13995 3.51562 9V11.788C3.51562 13.767 2.64862 15.635 1.12756 16.921C0.738647 17.2529 0.515625 17.738 0.515625 18.2499C0.515625 19.2151 1.3006 20.0001 2.26556 20.0001H18.7656C19.7307 20.0001 20.5157 19.2151 20.5157 18.2499C20.5157 17.738 20.2927 17.2529 19.8937 16.912C18.4177 15.663 17.5616 13.8499 17.5236 11.9211Z" fill="#FFC107"/>
<path d="M3.50769 11.9211C6.89771 11.437 9.51556 8.52191 9.51556 5.00006C9.51556 3.99994 9.3017 3.05109 8.92267 2.18994C9.43463 2.07001 9.96655 2.00006 10.5157 2.00006C14.3755 2.00006 17.5156 5.13995 17.5156 9V11.788C17.5156 13.767 18.3826 15.635 19.9037 16.921C20.2926 17.2529 20.5156 17.738 20.5156 18.2499C20.5156 19.2151 19.7307 20.0001 18.7657 20.0001H2.26569C1.30054 20.0001 0.515564 19.2151 0.515564 18.2499C0.515564 17.738 0.738586 17.2529 1.13757 16.912C2.61359 15.663 3.4696 13.8499 3.50769 11.9211Z" fill="#FFC107"/>
</svg>
