<svg width="16" height="16" viewBox="0 0 16 16" fill="none" xmlns="http://www.w3.org/2000/svg">
<path d="M8.00002 0.48787C7.99993 0.488047 7.99985 0.488225 7.99976 0.488402L8.00002 0.48787ZM8.00002 0.48787L7.99977 0.487752L7.99989 0.487697L8.00006 0.487779L8.00002 0.48787ZM10.2042 5.18383L10.3175 5.42533L10.5813 5.46561L15.4995 6.21687L15.4994 6.21767L11.9262 9.88018L11.75 10.0608L11.7906 10.3098L12.6353 15.4877L8.242 13.0591L8.00013 12.9254L7.75825 13.0591L3.36538 15.4868C3.36538 15.4868 3.36537 15.4868 3.36536 15.4868C3.36524 15.4867 3.36512 15.4866 3.36502 15.4865L4.20958 10.3092L4.2502 10.0601L4.07399 9.87952L0.500687 6.21688L5.41893 5.46561L5.6827 5.42532L5.79606 5.18378L7.98815 0.513154C7.99163 0.512655 7.99555 0.512344 7.99977 0.512344C8.00399 0.512344 8.00791 0.512655 8.01139 0.513154L10.2042 5.18383Z" stroke="#E6E6E6"/>
</svg>
