<svg width="24" height="24" viewBox="0 0 24 24" fill="none" xmlns="http://www.w3.org/2000/svg">
<g clip-path="url(#clip0)">
<path d="M3.01517 3.01809C4.96142 1.07184 7.54906 0 10.3014 0C13.0538 0 15.6414 1.07184 17.5876 3.01809C19.5338 4.9643 20.6057 7.55194 20.6057 10.3043C20.6057 12.8206 19.7093 15.199 18.0683 17.0757L23.7909 22.7984C24.0658 23.0733 24.0658 23.5189 23.7909 23.7938C23.6535 23.9312 23.4733 24 23.2932 24C23.1131 24 22.933 23.9313 22.7956 23.7938L17.0729 18.0712C15.1961 19.7121 12.8178 20.6086 10.3014 20.6086C7.54901 20.6086 4.96146 19.5368 3.01521 17.5905C1.06901 15.6443 -0.00283432 13.0567 -0.00283432 10.3043C-0.00283432 7.55194 1.06896 4.9643 3.01517 3.01809ZM4.0106 16.5951C7.4794 20.0639 13.1234 20.0639 16.5922 16.5951C20.0609 13.1264 20.0609 7.48228 16.5922 4.01353C14.8576 2.27897 12.5799 1.41197 10.3014 1.41197C8.02343 1.41197 5.74474 2.27939 4.01056 4.01353C0.541901 7.48223 0.541901 13.1263 4.0106 16.5951Z" fill="#A4A4A4"/>
</g>
<defs>
<clipPath id="clip0">
<rect width="24" height="24" fill="white" transform="matrix(-1 0 0 1 24 0)"/>
</clipPath>
</defs>
</svg>
