<?xml version="1.0" encoding="UTF-8" standalone="no"?>
<svg
   xmlns:dc="http://purl.org/dc/elements/1.1/"
   xmlns:cc="http://creativecommons.org/ns#"
   xmlns:rdf="http://www.w3.org/1999/02/22-rdf-syntax-ns#"
   xmlns:svg="http://www.w3.org/2000/svg"
   xmlns="http://www.w3.org/2000/svg"
   xmlns:sodipodi="http://sodipodi.sourceforge.net/DTD/sodipodi-0.dtd"
   xmlns:inkscape="http://www.inkscape.org/namespaces/inkscape"
   width="236"
   height="109"
   viewBox="0 0 236 109"
   fill="none"
   version="1.1"
   id="svg1321"
   sodipodi:docname="logo-horizontal.svg"
   inkscape:version="1.0.1 (1.0.1+r73)">
  <metadata
     id="metadata1327">
    <rdf:RDF>
      <cc:Work
         rdf:about="">
        <dc:format>image/svg+xml</dc:format>
        <dc:type
           rdf:resource="http://purl.org/dc/dcmitype/StillImage" />
      </cc:Work>
    </rdf:RDF>
  </metadata>
  <defs
     id="defs1325" />
  <sodipodi:namedview
     pagecolor="#ffffff"
     bordercolor="#666666"
     borderopacity="1"
     objecttolerance="10"
     gridtolerance="10"
     guidetolerance="10"
     inkscape:pageopacity="0"
     inkscape:pageshadow="2"
     inkscape:window-width="1920"
     inkscape:window-height="995"
     id="namedview1323"
     showgrid="false"
     inkscape:zoom="5.3220339"
     inkscape:cx="118"
     inkscape:cy="54.5"
     inkscape:window-x="0"
     inkscape:window-y="0"
     inkscape:window-maximized="1"
     inkscape:current-layer="svg1321" />
  <g
     style="mix-blend-mode:overlay"
     id="g1239">
    <ellipse
       cx="69.5241"
       cy="28.6891"
       rx="17.3346"
       ry="17.362"
       fill="#F14545"
       id="ellipse1237" />
  </g>
  <g
     style="mix-blend-mode:overlay"
     id="g1243">
    <ellipse
       cx="22.1549"
       cy="77.7113"
       rx="17.3346"
       ry="17.362"
       fill="#F14545"
       id="ellipse1241" />
  </g>
  <g
     style="mix-blend-mode:overlay"
     id="g1247">
    <ellipse
       cx="81.2038"
       cy="61.7419"
       rx="17.3346"
       ry="17.362"
       fill="#FFD671"
       id="ellipse1245" />
  </g>
  <g
     style="mix-blend-mode:overlay"
     id="g1251">
    <ellipse
       cx="24.8433"
       cy="56.2641"
       rx="11.4019"
       ry="11.4199"
       fill="#1AC0C6"
       id="ellipse1249" />
  </g>
  <g
     style="mix-blend-mode:overlay"
     id="g1255">
    <ellipse
       cx="32.4444"
       cy="22.747"
       rx="11.4019"
       ry="11.4199"
       fill="#FFD671"
       id="ellipse1253" />
  </g>
  <g
     style="mix-blend-mode:overlay"
     id="g1259">
    <ellipse
       cx="33.9277"
       cy="95.2589"
       rx="9.08445"
       ry="9.09881"
       fill="#FFD671"
       id="ellipse1257" />
  </g>
  <g
     style="mix-blend-mode:overlay"
     id="g1263">
    <ellipse
       cx="69.524"
       cy="81.7964"
       rx="11.4019"
       ry="11.4199"
       fill="#1AC0C6"
       id="ellipse1261" />
  </g>
  <g
     style="mix-blend-mode:overlay"
     id="g1267">
    <ellipse
       cx="63.8692"
       cy="97.5801"
       rx="11.4019"
       ry="11.4199"
       fill="#FFD671"
       id="ellipse1265" />
  </g>
  <g
     style="mix-blend-mode:overlay"
     id="g1271">
    <ellipse
       cx="52.1892"
       cy="17.4549"
       rx="6.39619"
       ry="6.4063"
       fill="#1AC0C6"
       id="ellipse1269" />
  </g>
  <g
     style="mix-blend-mode:overlay"
     id="g1275">
    <ellipse
       cx="9.91865"
       cy="37.9736"
       rx="6.39619"
       ry="6.4063"
       fill="#1AC0C6"
       id="ellipse1273" />
  </g>
  <g
     style="mix-blend-mode:overlay"
     id="g1279">
    <ellipse
       cx="90.2883"
       cy="93.2163"
       rx="6.39618"
       ry="6.4063"
       fill="#F14545"
       id="ellipse1277" />
  </g>
  <g
     style="mix-blend-mode:overlay"
     id="g1283">
    <ellipse
       cx="97.9821"
       cy="31.5673"
       rx="6.3962"
       ry="6.4063"
       fill="#F14545"
       id="ellipse1281" />
  </g>
  <g
     style="mix-blend-mode:overlay"
     id="g1287">
    <ellipse
       cx="39.4895"
       cy="85.5102"
       rx="6.39619"
       ry="6.4063"
       fill="#F14545"
       id="ellipse1285" />
  </g>
  <g
     style="mix-blend-mode:overlay"
     id="g1291">
    <ellipse
       cx="80.4621"
       cy="55.3356"
       rx="6.39619"
       ry="6.4063"
       fill="#1AC0C6"
       id="ellipse1289" />
  </g>
  <g
     style="mix-blend-mode:overlay"
     id="g1295">
    <ellipse
       cx="40.3238"
       cy="3.52811"
       rx="3.52254"
       ry="3.52811"
       fill="#F14545"
       id="ellipse1293" />
  </g>
  <g
     style="mix-blend-mode:overlay"
     id="g1299">
    <ellipse
       cx="6.1181"
       cy="67.8696"
       rx="6.1181"
       ry="6.12777"
       fill="#FFD671"
       id="ellipse1297" />
  </g>
  <path
     d="M60.1548 87.9242H40.424C38.3757 87.9242 36.709 89.5278 36.709 91.4987C36.709 93.4696 38.3755 95.0732 40.424 95.0732H60.1549C62.2032 95.0732 63.8696 93.4696 63.8696 91.4987C63.8696 89.5278 62.2035 87.9242 60.1548 87.9242Z"
     fill="#F2F2F2"
     id="path1301"
     style="fill:#ffffff;fill-opacity:1" />
  <path
     d="M43.2071 98.6014C41.1577 98.6014 39.4902 99.8511 39.4902 101.387C39.4902 102.923 41.1577 104.172 43.2071 104.172H57.3722C59.4216 104.172 61.089 102.923 61.089 101.387C61.089 99.8511 59.4216 98.6014 57.3722 98.6014H43.2071Z"
     fill="#F2F2F2"
     id="path1303"
     style="fill:#ffffff;fill-opacity:1" />
  <path
     d="M67.8871 83.1076C68.2863 82.4414 68.3879 81.4261 68.4776 80.5297C68.5008 80.2965 68.5226 80.0786 68.5487 79.8897C69.5483 72.6327 71.9863 68.3373 74.3434 64.1833C77.0308 59.4478 79.5687 54.9747 79.5687 46.7805C79.5684 30.6101 66.4335 17.4549 50.289 17.4549C34.1443 17.4549 21.0098 30.6101 21.0098 46.7804C21.0098 54.973 23.5469 59.4456 26.2331 64.1807C28.7521 68.6214 31.3567 73.2126 32.2058 81.3931C32.2264 83.2473 33.7402 84.7518 35.5924 84.7518H64.9861C66.1676 84.7523 67.2791 84.122 67.8871 83.1076Z"
     fill="#F2F2F2"
     id="path1305"
     style="fill:#ffffff;fill-opacity:1" />
  <path
     d="M127.491 50.9079C125.189 50.9079 123.463 50.2582 122.311 48.9589C121.16 47.6418 120.54 45.8798 120.452 43.6727C120.434 43.1922 120.425 42.409 120.425 41.3233C120.425 40.2198 120.434 39.4189 120.452 38.9205C120.54 36.7135 121.16 34.9603 122.311 33.661C123.463 32.3439 125.189 31.6854 127.491 31.6854C129.068 31.6854 130.378 31.9791 131.423 32.5664C132.468 33.136 133.238 33.8657 133.734 34.7557C134.248 35.6278 134.531 36.5266 134.584 37.4521V37.5055C134.584 37.6479 134.531 37.7636 134.425 37.8526C134.319 37.9416 134.186 37.9861 134.026 37.9861H133.495C133.176 37.9861 132.981 37.7992 132.911 37.4254C132.574 35.9126 131.963 34.8446 131.078 34.2217C130.192 33.5987 128.997 33.2873 127.491 33.2873C125.827 33.2873 124.534 33.7589 123.613 34.7023C122.692 35.6456 122.196 37.0962 122.125 39.054C122.108 39.5346 122.099 40.2732 122.099 41.2699C122.099 42.2667 122.108 43.0231 122.125 43.5393C122.196 45.4971 122.692 46.9477 123.613 47.891C124.534 48.8343 125.827 49.306 127.491 49.306C128.997 49.306 130.192 48.9945 131.078 48.3716C131.963 47.7486 132.574 46.6807 132.911 45.1678C132.981 44.7941 133.176 44.6072 133.495 44.6072H134.026C134.186 44.6072 134.319 44.6606 134.425 44.7674C134.549 44.8563 134.602 44.9809 134.584 45.1411C134.531 46.0667 134.248 46.9744 133.734 47.8643C133.238 48.7364 132.468 49.4662 131.423 50.0535C130.378 50.6231 129.068 50.9079 127.491 50.9079Z"
     fill="#17ACB2"
     id="path1307" />
  <path
     d="M158.874 50.9079C154.322 50.9079 151.985 48.4517 151.861 43.5393C151.843 43.0053 151.834 42.2578 151.834 41.2966C151.834 40.3355 151.843 39.588 151.861 39.054C151.932 36.6334 152.587 34.8001 153.827 33.5542C155.066 32.3083 156.749 31.6854 158.874 31.6854C160.999 31.6854 162.681 32.3083 163.921 33.5542C165.161 34.8001 165.816 36.6334 165.887 39.054C165.922 40.1219 165.94 40.8695 165.94 41.2966C165.94 41.7238 165.922 42.4713 165.887 43.5393C165.763 48.4517 163.425 50.9079 158.874 50.9079ZM158.874 49.306C160.468 49.306 161.734 48.8254 162.673 47.8643C163.629 46.8854 164.142 45.3992 164.213 43.4058C164.249 42.3378 164.266 41.6348 164.266 41.2966C164.266 40.9585 164.249 40.2554 164.213 39.1875C164.142 37.1941 163.629 35.7168 162.673 34.7557C161.716 33.7767 160.45 33.2873 158.874 33.2873C157.298 33.2873 156.031 33.7767 155.075 34.7557C154.119 35.7168 153.605 37.1941 153.534 39.1875C153.517 39.7215 153.508 40.4245 153.508 41.2966C153.508 42.1688 153.517 42.8718 153.534 43.4058C153.605 45.3992 154.11 46.8854 155.049 47.8643C156.005 48.8254 157.28 49.306 158.874 49.306Z"
     fill="#17ACB2"
     id="path1309" />
  <path
     d="M184.857 50.6409C184.68 50.6409 184.529 50.5875 184.405 50.4807C184.299 50.3739 184.246 50.2315 184.246 50.0535V32.5664C184.246 32.3706 184.299 32.2194 184.405 32.1126C184.529 32.0058 184.68 31.9524 184.857 31.9524H185.521C185.787 31.9524 185.973 32.0681 186.079 32.2994L192.109 44.0999L198.166 32.2994C198.29 32.0681 198.476 31.9524 198.724 31.9524H199.361C199.556 31.9524 199.706 32.0058 199.813 32.1126C199.919 32.2194 199.972 32.3706 199.972 32.5664V50.0535C199.972 50.2315 199.91 50.3739 199.786 50.4807C199.68 50.5875 199.538 50.6409 199.361 50.6409H198.883C198.706 50.6409 198.564 50.5875 198.458 50.4807C198.352 50.3739 198.298 50.2315 198.298 50.0535V35.5833L193.225 45.6217C193.065 45.9777 192.791 46.1556 192.401 46.1556H191.817C191.427 46.1556 191.153 45.9777 190.993 45.6217L185.919 35.5833V50.0535C185.919 50.2315 185.866 50.3739 185.76 50.4807C185.654 50.5875 185.512 50.6409 185.335 50.6409H184.857Z"
     fill="#17ACB2"
     id="path1311" />
  <path
     d="M225.348 50.9079C220.797 50.9079 218.459 48.4517 218.335 43.5393C218.318 43.0053 218.309 42.2578 218.309 41.2966C218.309 40.3355 218.318 39.588 218.335 39.054C218.406 36.6334 219.061 34.8001 220.301 33.5542C221.541 32.3083 223.223 31.6854 225.348 31.6854C227.474 31.6854 229.156 32.3083 230.396 33.5542C231.635 34.8001 232.291 36.6334 232.361 39.054C232.397 40.1219 232.415 40.8695 232.415 41.2966C232.415 41.7238 232.397 42.4713 232.361 43.5393C232.237 48.4517 229.9 50.9079 225.348 50.9079ZM225.348 49.306C226.942 49.306 228.209 48.8254 229.147 47.8643C230.103 46.8854 230.617 45.3992 230.688 43.4058C230.723 42.3378 230.741 41.6348 230.741 41.2966C230.741 40.9585 230.723 40.2554 230.688 39.1875C230.617 37.1941 230.103 35.7168 229.147 34.7557C228.191 33.7767 226.925 33.2873 225.348 33.2873C223.772 33.2873 222.506 33.7767 221.55 34.7557C220.593 35.7168 220.08 37.1941 220.009 39.1875C219.991 39.7215 219.982 40.4245 219.982 41.2966C219.982 42.1688 219.991 42.8718 220.009 43.4058C220.08 45.3992 220.585 46.8854 221.523 47.8643C222.479 48.8254 223.755 49.306 225.348 49.306Z"
     fill="#17ACB2"
     id="path1313" />
  <path
     d="M123.196 100.548C122.787 100.548 122.434 100.399 122.137 100.102C121.84 99.804 121.691 99.4504 121.691 99.041V62.977C121.691 62.5676 121.84 62.214 122.137 61.9163C122.434 61.6185 122.787 61.4697 123.196 61.4697H151.296C151.705 61.4697 152.058 61.6185 152.356 61.9163C152.653 62.214 152.802 62.5676 152.802 62.977V71.4626C152.802 71.872 152.653 72.2256 152.356 72.5233C152.058 72.8211 151.705 72.97 151.296 72.97H135.351V77.1011H150.181C150.59 77.1011 150.943 77.25 151.241 77.5477C151.538 77.8455 151.687 78.199 151.687 78.6084V87.0383C151.687 87.4477 151.538 87.8012 151.241 88.099C150.943 88.3967 150.59 88.5456 150.181 88.5456H135.351V99.041C135.351 99.4504 135.202 99.804 134.905 100.102C134.607 100.399 134.254 100.548 133.845 100.548H123.196Z"
     fill="#17ACB2"
     id="path1315" />
  <path
     d="M156.111 100.548C155.776 100.548 155.479 100.437 155.219 100.213C154.996 99.9528 154.884 99.6551 154.884 99.3201C154.884 99.1712 154.903 99.041 154.94 98.9293L167.373 63.3119C167.522 62.8281 167.801 62.4001 168.21 62.0279C168.618 61.6558 169.176 61.4697 169.882 61.4697H181.981C182.687 61.4697 183.245 61.6558 183.653 62.0279C184.062 62.4001 184.341 62.8281 184.49 63.3119L196.923 98.9293C196.96 99.041 196.979 99.1712 196.979 99.3201C196.979 99.6551 196.849 99.9528 196.588 100.213C196.365 100.437 196.087 100.548 195.752 100.548H185.438C184.323 100.548 183.598 100.083 183.263 99.1526L181.925 95.4681H169.938L168.6 99.1526C168.265 100.083 167.54 100.548 166.425 100.548H156.111ZM179.082 84.5819L175.904 74.1981L172.781 84.5819H179.082Z"
     fill="#17ACB2"
     id="path1317" />
  <path
     d="M202.659 100.548C202.25 100.548 201.897 100.399 201.6 100.102C201.302 99.804 201.154 99.4504 201.154 99.041V91.002C201.154 90.2576 201.433 89.6063 201.99 89.048L217.601 72.8025H203.217C202.808 72.8025 202.455 72.6536 202.157 72.3559C201.86 72.0581 201.711 71.7045 201.711 71.2952V62.977C201.711 62.5676 201.86 62.214 202.157 61.9163C202.455 61.6185 202.808 61.4697 203.217 61.4697H233.77C234.179 61.4697 234.532 61.6185 234.829 61.9163C235.127 62.214 235.275 62.5676 235.275 62.977V70.9044C235.275 71.6487 235.034 72.2628 234.551 72.7466L219.776 89.1038H234.495C234.904 89.1038 235.257 89.2527 235.554 89.5505C235.851 89.8482 236 90.2018 236 90.6112V99.041C236 99.4504 235.851 99.804 235.554 100.102C235.257 100.399 234.904 100.548 234.495 100.548H202.659Z"
     fill="#17ACB2"
     id="path1319" />
</svg>
