<?xml version="1.0" encoding="UTF-8" standalone="no"?>
<svg
   xmlns:dc="http://purl.org/dc/elements/1.1/"
   xmlns:cc="http://creativecommons.org/ns#"
   xmlns:rdf="http://www.w3.org/1999/02/22-rdf-syntax-ns#"
   xmlns:svg="http://www.w3.org/2000/svg"
   xmlns="http://www.w3.org/2000/svg"
   xmlns:sodipodi="http://sodipodi.sourceforge.net/DTD/sodipodi-0.dtd"
   xmlns:inkscape="http://www.inkscape.org/namespaces/inkscape"
   width="82"
   height="125"
   viewBox="0 0 82 125"
   fill="none"
   version="1.1"
   id="svg1441"
   sodipodi:docname="logo-texto-azul.svg"
   inkscape:version="1.0.1 (1.0.1+r73)">
  <metadata
     id="metadata1447">
    <rdf:RDF>
      <cc:Work
         rdf:about="">
        <dc:format>image/svg+xml</dc:format>
        <dc:type
           rdf:resource="http://purl.org/dc/dcmitype/StillImage" />
      </cc:Work>
    </rdf:RDF>
  </metadata>
  <defs
     id="defs1445" />
  <sodipodi:namedview
     pagecolor="#ffffff"
     bordercolor="#666666"
     borderopacity="1"
     objecttolerance="10"
     gridtolerance="10"
     guidetolerance="10"
     inkscape:pageopacity="0"
     inkscape:pageshadow="2"
     inkscape:window-width="1920"
     inkscape:window-height="995"
     id="namedview1443"
     showgrid="false"
     inkscape:zoom="4.6386205"
     inkscape:cx="16.145073"
     inkscape:cy="58.23197"
     inkscape:window-x="0"
     inkscape:window-y="0"
     inkscape:window-maximized="1"
     inkscape:current-layer="svg1441" />
  <g
     style="mix-blend-mode:overlay"
     id="g1359">
    <circle
       cx="54.6181"
       cy="22.5027"
       r="13.6181"
       fill="#F14545"
       id="circle1357" />
  </g>
  <g
     style="mix-blend-mode:overlay"
     id="g1363">
    <circle
       cx="17.4047"
       cy="60.9538"
       r="13.6181"
       fill="#F14545"
       id="circle1361" />
  </g>
  <g
     style="mix-blend-mode:overlay"
     id="g1367">
    <circle
       cx="63.7939"
       cy="48.4281"
       r="13.6181"
       fill="#FFD671"
       id="circle1365" />
  </g>
  <g
     style="mix-blend-mode:overlay"
     id="g1371">
    <circle
       cx="19.5169"
       cy="44.1314"
       r="8.95737"
       fill="#1AC0C6"
       id="circle1369" />
  </g>
  <g
     style="mix-blend-mode:overlay"
     id="g1375">
    <circle
       cx="25.4881"
       cy="17.8419"
       r="8.95737"
       fill="#FFD671"
       id="circle1373" />
  </g>
  <g
     style="mix-blend-mode:overlay"
     id="g1379">
    <circle
       cx="26.6539"
       cy="74.7176"
       r="7.13677"
       fill="#FFD671"
       id="circle1377" />
  </g>
  <g
     style="mix-blend-mode:overlay"
     id="g1383">
    <circle
       cx="54.618"
       cy="64.1581"
       r="8.95737"
       fill="#1AC0C6"
       id="circle1381" />
  </g>
  <g
     style="mix-blend-mode:overlay"
     id="g1387">
    <circle
       cx="50.1761"
       cy="76.5382"
       r="8.95737"
       fill="#FFD671"
       id="circle1385" />
  </g>
  <g
     style="mix-blend-mode:overlay"
     id="g1391">
    <circle
       cx="41"
       cy="13.6909"
       r="5.02487"
       fill="#1AC0C6"
       id="circle1389" />
  </g>
  <g
     style="mix-blend-mode:overlay"
     id="g1395">
    <circle
       cx="7.79196"
       cy="29.7851"
       r="5.02487"
       fill="#1AC0C6"
       id="circle1393" />
  </g>
  <g
     style="mix-blend-mode:overlay"
     id="g1399">
    <circle
       cx="70.9306"
       cy="73.1154"
       r="5.02487"
       fill="#F14545"
       id="circle1397" />
  </g>
  <g
     style="mix-blend-mode:overlay"
     id="g1403">
    <circle
       cx="76.9751"
       cy="24.7602"
       r="5.02487"
       fill="#F14545"
       id="circle1401" />
  </g>
  <g
     style="mix-blend-mode:overlay"
     id="g1407">
    <circle
       cx="31.0234"
       cy="67.0711"
       r="5.02487"
       fill="#F14545"
       id="circle1405" />
  </g>
  <g
     style="mix-blend-mode:overlay"
     id="g1411">
    <circle
       cx="63.2114"
       cy="43.4032"
       r="5.02487"
       fill="#1AC0C6"
       id="circle1409" />
  </g>
  <g
     style="mix-blend-mode:overlay"
     id="g1415">
    <circle
       cx="31.6785"
       cy="2.76732"
       r="2.76732"
       fill="#F14545"
       id="circle1413" />
  </g>
  <g
     style="mix-blend-mode:overlay"
     id="g1419">
    <circle
       cx="4.80639"
       cy="53.2345"
       r="4.80639"
       fill="#FFD671"
       id="circle1417" />
  </g>
  <path
     d="M47.258 68.9645H31.7574C30.1482 68.9645 28.8389 70.2223 28.8389 71.7682C28.8389 73.3141 30.1481 74.5719 31.7574 74.5719H47.2581C48.8672 74.5719 50.1763 73.3141 50.1763 71.7682C50.1763 70.2223 48.8674 68.9645 47.258 68.9645Z"
     fill="#F2F2F2"
     id="path1421"
     style="fill:#ffffff;fill-opacity:1" />
  <path
     d="M33.9434 77.3392C32.3334 77.3392 31.0234 78.3195 31.0234 79.524C31.0234 80.7286 32.3334 81.7087 33.9434 81.7087H45.0716C46.6816 81.7087 47.9915 80.7286 47.9915 79.524C47.9915 78.3195 46.6816 77.3392 45.0716 77.3392H33.9434Z"
     fill="#F2F2F2"
     id="path1423"
     style="fill:#ffffff;fill-opacity:1" />
  <path
     d="M53.3323 65.1865C53.6459 64.664 53.7257 63.8676 53.7962 63.1645C53.8145 62.9816 53.8316 62.8107 53.8521 62.6625C54.6374 56.9704 56.5526 53.6012 58.4044 50.343C60.5157 46.6286 62.5094 43.1201 62.5094 36.6929C62.5092 24.0095 52.1904 13.6909 39.5072 13.6909C26.8239 13.6909 16.5054 24.0095 16.5054 36.6928C16.5054 43.1188 18.4985 46.6269 20.6089 50.3409C22.5878 53.8241 24.634 57.4253 25.301 63.8417C25.3172 65.2961 26.5064 66.4761 27.9615 66.4761H51.0533C51.9815 66.4765 52.8547 65.9822 53.3323 65.1865Z"
     fill="#F2F2F2"
     id="path1425"
     style="fill:#ffffff;fill-opacity:1" />
  <path
     d="M15.5764 99.8226C14.4401 99.8226 13.5879 99.5027 13.0198 98.8628C12.4516 98.2141 12.1457 97.3463 12.102 96.2593C12.0932 96.0226 12.0889 95.6369 12.0889 95.1022C12.0889 94.5587 12.0932 94.1643 12.102 93.9188C12.1457 92.8319 12.4516 91.9684 13.0198 91.3285C13.5879 90.6798 14.4401 90.3555 15.5764 90.3555C16.3544 90.3555 17.0012 90.5001 17.5169 90.7894C18.0326 91.0699 18.4128 91.4293 18.6576 91.8676C18.9111 92.2971 19.0509 92.7398 19.0771 93.1956V93.2219C19.0771 93.2921 19.0509 93.3491 18.9985 93.3929C18.946 93.4367 18.8805 93.4586 18.8018 93.4586H18.5396C18.3822 93.4586 18.2861 93.3666 18.2511 93.1825C18.0851 92.4374 17.7835 91.9114 17.3465 91.6046C16.9094 91.2978 16.3194 91.1444 15.5764 91.1444C14.7548 91.1444 14.1167 91.3767 13.6622 91.8413C13.2077 92.3059 12.9629 93.0203 12.928 93.9846C12.9192 94.2213 12.9149 94.585 12.9149 95.0759C12.9149 95.5668 12.9192 95.9394 12.928 96.1936C12.9629 97.1578 13.2077 97.8722 13.6622 98.3368C14.1167 98.8014 14.7548 99.0337 15.5764 99.0337C16.3194 99.0337 16.9094 98.8803 17.3465 98.5735C17.7835 98.2667 18.0851 97.7408 18.2511 96.9957C18.2861 96.8116 18.3822 96.7195 18.5396 96.7195H18.8018C18.8805 96.7195 18.946 96.7458 18.9985 96.7984C19.0597 96.8423 19.0859 96.9036 19.0771 96.9825C19.0509 97.4383 18.9111 97.8854 18.6576 98.3237C18.4128 98.7532 18.0326 99.1126 17.5169 99.4019C17.0012 99.6824 16.3544 99.8226 15.5764 99.8226Z"
     fill="#17ACB2"
     id="path1427" />
  <path
     d="M31.0656 99.8226C28.8192 99.8226 27.6654 98.613 27.6042 96.1936C27.5955 95.9306 27.5911 95.5624 27.5911 95.0891C27.5911 94.6157 27.5955 94.2476 27.6042 93.9846C27.6392 92.7924 27.9626 91.8895 28.5745 91.2759C29.1863 90.6623 30.0167 90.3555 31.0656 90.3555C32.1145 90.3555 32.9449 90.6623 33.5567 91.2759C34.1686 91.8895 34.492 92.7924 34.5269 93.9846C34.5444 94.5105 34.5532 94.8787 34.5532 95.0891C34.5532 95.2995 34.5444 95.6676 34.5269 96.1936C34.4658 98.613 33.312 99.8226 31.0656 99.8226ZM31.0656 99.0337C31.8523 99.0337 32.4772 98.797 32.9405 98.3237C33.4125 97.8416 33.666 97.1096 33.7009 96.1278C33.7184 95.6019 33.7272 95.2556 33.7272 95.0891C33.7272 94.9225 33.7184 94.5763 33.7009 94.0503C33.666 93.0685 33.4125 92.341 32.9405 91.8676C32.4685 91.3855 31.8435 91.1444 31.0656 91.1444C30.2877 91.1444 29.6627 91.3855 29.1907 91.8676C28.7187 92.341 28.4652 93.0685 28.4302 94.0503C28.4215 94.3133 28.4171 94.6595 28.4171 95.0891C28.4171 95.5186 28.4215 95.8649 28.4302 96.1278C28.4652 97.1096 28.7143 97.8416 29.1776 98.3237C29.6496 98.797 30.2789 99.0337 31.0656 99.0337Z"
     fill="#17ACB2"
     id="path1429" />
  <path
     d="M43.8898 99.6912C43.8024 99.6912 43.7281 99.6649 43.6669 99.6123C43.6144 99.5597 43.5882 99.4895 43.5882 99.4019V90.7894C43.5882 90.693 43.6144 90.6185 43.6669 90.5659C43.7281 90.5133 43.8024 90.487 43.8898 90.487H44.2176C44.3487 90.487 44.4404 90.544 44.4929 90.6579L47.4691 96.4697L50.4585 90.6579C50.5197 90.544 50.6114 90.487 50.7338 90.487H51.0485C51.1446 90.487 51.2189 90.5133 51.2714 90.5659C51.3238 90.6185 51.35 90.693 51.35 90.7894V99.4019C51.35 99.4895 51.3195 99.5597 51.2583 99.6123C51.2058 99.6649 51.1359 99.6912 51.0485 99.6912H50.8125C50.7251 99.6912 50.6552 99.6649 50.6027 99.6123C50.5503 99.5597 50.524 99.4895 50.524 99.4019V92.2752L48.0198 97.2192C47.9411 97.3945 47.8056 97.4822 47.6133 97.4822H47.3249C47.1326 97.4822 46.9971 97.3945 46.9185 97.2192L44.4142 92.2752V99.4019C44.4142 99.4895 44.388 99.5597 44.3356 99.6123C44.2831 99.6649 44.2132 99.6912 44.1258 99.6912H43.8898Z"
     fill="#17ACB2"
     id="path1431" />
  <path
     d="M63.8748 99.8226C61.6284 99.8226 60.4747 98.613 60.4135 96.1936C60.4047 95.9306 60.4004 95.5624 60.4004 95.0891C60.4004 94.6157 60.4047 94.2476 60.4135 93.9846C60.4484 92.7924 60.7718 91.8895 61.3837 91.2759C61.9955 90.6623 62.8259 90.3555 63.8748 90.3555C64.9237 90.3555 65.7541 90.6623 66.366 91.2759C66.9778 91.8895 67.3012 92.7924 67.3362 93.9846C67.3537 94.5105 67.3624 94.8787 67.3624 95.0891C67.3624 95.2995 67.3537 95.6676 67.3362 96.1936C67.275 98.613 66.1212 99.8226 63.8748 99.8226ZM63.8748 99.0337C64.6615 99.0337 65.2865 98.797 65.7497 98.3237C66.2217 97.8416 66.4752 97.1096 66.5102 96.1278C66.5277 95.6019 66.5364 95.2556 66.5364 95.0891C66.5364 94.9225 66.5277 94.5763 66.5102 94.0503C66.4752 93.0685 66.2217 92.341 65.7497 91.8676C65.2777 91.3855 64.6528 91.1444 63.8748 91.1444C63.0969 91.1444 62.4719 91.3855 61.9999 91.8676C61.5279 92.341 61.2744 93.0685 61.2395 94.0503C61.2307 94.3133 61.2264 94.6595 61.2264 95.0891C61.2264 95.5186 61.2307 95.8649 61.2395 96.1278C61.2744 97.1096 61.5235 97.8416 61.9868 98.3237C62.4588 98.797 63.0882 99.0337 63.8748 99.0337Z"
     fill="#17ACB2"
     id="path1433" />
  <path
     d="M13.4874 124.292C13.2855 124.292 13.1112 124.218 12.9644 124.071C12.8175 123.924 12.7441 123.749 12.7441 123.547V105.738C12.7441 105.535 12.8175 105.361 12.9644 105.214C13.1112 105.067 13.2855 104.993 13.4874 104.993H27.3615C27.5633 104.993 27.7377 105.067 27.8845 105.214C28.0313 105.361 28.1047 105.535 28.1047 105.738V109.928C28.1047 110.13 28.0313 110.305 27.8845 110.452C27.7377 110.599 27.5633 110.672 27.3615 110.672H19.4885V112.713H26.8109C27.0128 112.713 27.1871 112.786 27.3339 112.933C27.4808 113.08 27.5542 113.255 27.5542 113.457V117.62C27.5542 117.822 27.4808 117.997 27.3339 118.144C27.1871 118.291 27.0128 118.364 26.8109 118.364H19.4885V123.547C19.4885 123.749 19.4151 123.924 19.2683 124.071C19.1214 124.218 18.9471 124.292 18.7452 124.292H13.4874Z"
     fill="#17ACB2"
     id="path1435" />
  <path
     d="M29.7386 124.292C29.5734 124.292 29.4266 124.236 29.2981 124.126C29.188 123.997 29.1329 123.85 29.1329 123.685C29.1329 123.612 29.1421 123.547 29.1605 123.492L35.2992 105.903C35.3726 105.664 35.5102 105.453 35.7121 105.269C35.914 105.085 36.1893 104.993 36.538 104.993H42.5115C42.8602 104.993 43.1355 105.085 43.3374 105.269C43.5392 105.453 43.6769 105.664 43.7503 105.903L49.889 123.492C49.9074 123.547 49.9165 123.612 49.9165 123.685C49.9165 123.85 49.8523 123.997 49.7238 124.126C49.6137 124.236 49.4761 124.292 49.3109 124.292H44.2183C43.6677 124.292 43.3098 124.062 43.1447 123.602L42.484 121.783H36.5655L35.9048 123.602C35.7396 124.062 35.3818 124.292 34.8312 124.292H29.7386ZM41.0801 116.407L39.511 111.279L37.9694 116.407H41.0801Z"
     fill="#17ACB2"
     id="path1437" />
  <path
     d="M52.7212 124.292C52.5193 124.292 52.3449 124.218 52.1981 124.071C52.0513 123.924 51.9779 123.749 51.9779 123.547V119.577C51.9779 119.21 52.1155 118.888 52.3908 118.612L60.0986 110.59H52.9964C52.7946 110.59 52.6202 110.516 52.4734 110.369C52.3266 110.222 52.2532 110.048 52.2532 109.845V105.738C52.2532 105.535 52.3266 105.361 52.4734 105.214C52.6202 105.067 52.7946 104.993 52.9964 104.993H68.0817C68.2836 104.993 68.458 105.067 68.6048 105.214C68.7516 105.361 68.825 105.535 68.825 105.738V109.652C68.825 110.02 68.7057 110.323 68.4671 110.562L61.1722 118.64H68.4396C68.6415 118.64 68.8158 118.713 68.9626 118.86C69.1095 119.007 69.1829 119.182 69.1829 119.384V123.547C69.1829 123.749 69.1095 123.924 68.9626 124.071C68.8158 124.218 68.6415 124.292 68.4396 124.292H52.7212Z"
     fill="#17ACB2"
     id="path1439" />
</svg>
