<?xml version="1.0" encoding="UTF-8" standalone="no"?>
<svg
   xmlns:dc="http://purl.org/dc/elements/1.1/"
   xmlns:cc="http://creativecommons.org/ns#"
   xmlns:rdf="http://www.w3.org/1999/02/22-rdf-syntax-ns#"
   xmlns:svg="http://www.w3.org/2000/svg"
   xmlns="http://www.w3.org/2000/svg"
   xmlns:sodipodi="http://sodipodi.sourceforge.net/DTD/sodipodi-0.dtd"
   xmlns:inkscape="http://www.inkscape.org/namespaces/inkscape"
   width="81.999969"
   height="85.495567"
   viewBox="0 0 81.999969 85.495567"
   fill="none"
   version="1.1"
   id="svg1441"
   sodipodi:docname="logo.svg"
   inkscape:version="1.0.1 (1.0.1+r73)">
  <metadata
     id="metadata1447">
    <rdf:RDF>
      <cc:Work
         rdf:about="">
        <dc:format>image/svg+xml</dc:format>
        <dc:type
           rdf:resource="http://purl.org/dc/dcmitype/StillImage" />
        <dc:title></dc:title>
      </cc:Work>
    </rdf:RDF>
  </metadata>
  <defs
     id="defs1445" />
  <sodipodi:namedview
     pagecolor="#ffffff"
     bordercolor="#666666"
     borderopacity="1"
     objecttolerance="10"
     gridtolerance="10"
     guidetolerance="10"
     inkscape:pageopacity="0"
     inkscape:pageshadow="2"
     inkscape:window-width="1920"
     inkscape:window-height="968"
     id="namedview1443"
     showgrid="false"
     inkscape:zoom="4.6386205"
     inkscape:cx="16.145073"
     inkscape:cy="58.23197"
     inkscape:window-x="1920"
     inkscape:window-y="27"
     inkscape:window-maximized="1"
     inkscape:current-layer="svg1441"
     inkscape:document-rotation="0"
     fit-margin-top="0"
     fit-margin-left="0"
     fit-margin-right="0"
     fit-margin-bottom="0" />
  <g
     style="mix-blend-mode:overlay"
     id="g1359">
    <circle
       cx="54.618099"
       cy="22.502701"
       r="13.6181"
       fill="#f14545"
       id="circle1357" />
  </g>
  <g
     style="mix-blend-mode:overlay"
     id="g1363">
    <circle
       cx="17.404699"
       cy="60.9538"
       r="13.6181"
       fill="#f14545"
       id="circle1361" />
  </g>
  <g
     style="mix-blend-mode:overlay"
     id="g1367">
    <circle
       cx="63.7939"
       cy="48.428101"
       r="13.6181"
       fill="#ffd671"
       id="circle1365" />
  </g>
  <g
     style="mix-blend-mode:overlay"
     id="g1371">
    <circle
       cx="19.516899"
       cy="44.131401"
       r="8.9573698"
       fill="#1ac0c6"
       id="circle1369" />
  </g>
  <g
     style="mix-blend-mode:overlay"
     id="g1375">
    <circle
       cx="25.4881"
       cy="17.8419"
       r="8.9573698"
       fill="#ffd671"
       id="circle1373" />
  </g>
  <g
     style="mix-blend-mode:overlay"
     id="g1379">
    <circle
       cx="26.6539"
       cy="74.717598"
       r="7.1367698"
       fill="#ffd671"
       id="circle1377" />
  </g>
  <g
     style="mix-blend-mode:overlay"
     id="g1383">
    <circle
       cx="54.618"
       cy="64.158096"
       r="8.9573698"
       fill="#1ac0c6"
       id="circle1381" />
  </g>
  <g
     style="mix-blend-mode:overlay"
     id="g1387">
    <circle
       cx="50.176102"
       cy="76.5382"
       r="8.9573698"
       fill="#ffd671"
       id="circle1385" />
  </g>
  <g
     style="mix-blend-mode:overlay"
     id="g1391">
    <circle
       cx="41"
       cy="13.6909"
       r="5.0248699"
       fill="#1ac0c6"
       id="circle1389" />
  </g>
  <g
     style="mix-blend-mode:overlay"
     id="g1395">
    <circle
       cx="7.7919598"
       cy="29.785101"
       r="5.0248699"
       fill="#1ac0c6"
       id="circle1393" />
  </g>
  <g
     style="mix-blend-mode:overlay"
     id="g1399">
    <circle
       cx="70.930603"
       cy="73.115402"
       r="5.0248699"
       fill="#f14545"
       id="circle1397" />
  </g>
  <g
     style="mix-blend-mode:overlay"
     id="g1403">
    <circle
       cx="76.975098"
       cy="24.760201"
       r="5.0248699"
       fill="#f14545"
       id="circle1401" />
  </g>
  <g
     style="mix-blend-mode:overlay"
     id="g1407">
    <circle
       cx="31.023399"
       cy="67.071098"
       r="5.0248699"
       fill="#f14545"
       id="circle1405" />
  </g>
  <g
     style="mix-blend-mode:overlay"
     id="g1411">
    <circle
       cx="63.211399"
       cy="43.403198"
       r="5.0248699"
       fill="#1ac0c6"
       id="circle1409" />
  </g>
  <g
     style="mix-blend-mode:overlay"
     id="g1415">
    <circle
       cx="31.678499"
       cy="2.7673199"
       r="2.7673199"
       fill="#f14545"
       id="circle1413" />
  </g>
  <g
     style="mix-blend-mode:overlay"
     id="g1419">
    <circle
       cx="4.8063898"
       cy="53.234501"
       r="4.8063898"
       fill="#ffd671"
       id="circle1417" />
  </g>
  <path
     d="M 47.258,68.9645 H 31.7574 c -1.6092,0 -2.9185,1.2578 -2.9185,2.8037 0,1.5459 1.3092,2.8037 2.9185,2.8037 h 15.5007 c 1.6091,0 2.9182,-1.2578 2.9182,-2.8037 0,-1.5459 -1.3089,-2.8037 -2.9183,-2.8037 z"
     fill="#F2F2F2"
     id="path1421"
     style="fill:#ffffff;fill-opacity:1" />
  <path
     d="m 33.9434,77.3392 c -1.61,0 -2.92,0.9803 -2.92,2.1848 0,1.2046 1.31,2.1847 2.92,2.1847 h 11.1282 c 1.61,0 2.9199,-0.9801 2.9199,-2.1847 0,-1.2045 -1.3099,-2.1848 -2.9199,-2.1848 z"
     fill="#F2F2F2"
     id="path1423"
     style="fill:#ffffff;fill-opacity:1" />
  <path
     d="m 53.3323,65.1865 c 0.3136,-0.5225 0.3934,-1.3189 0.4639,-2.022 0.0183,-0.1829 0.0354,-0.3538 0.0559,-0.502 0.7853,-5.6921 2.7005,-9.0613 4.5523,-12.3195 2.1113,-3.7144 4.105,-7.2229 4.105,-13.6501 -2e-4,-12.6834 -10.319,-23.002 -23.0022,-23.002 -12.6833,0 -23.0018,10.3186 -23.0018,23.0019 0,6.426 1.9931,9.9341 4.1035,13.6481 1.9789,3.4832 4.0251,7.0844 4.6921,13.5008 0.0162,1.4544 1.2054,2.6344 2.6605,2.6344 h 23.0918 c 0.9282,4e-4 1.8014,-0.4939 2.279,-1.2896 z"
     fill="#F2F2F2"
     id="path1425"
     style="fill:#ffffff;fill-opacity:1" />
</svg>
